<svg viewBox="120 120 3039.999999999999 1960" fill="none" xmlns="http://www.w3.org/2000/svg" xmlns:xlink="http://www.w3.org/1999/xlink" overflow="visible" width="3039.999999999999px" height="1960px"><g id="Master/Scenes/Social Media"><g id="Background"><g id="Flying Objects" opacity="0.5" transform="translate(2014 38) scale(1 1)"><g id="Flying Objects/Speech Bubble"><g id="comment"><path id="Fill 4" fill-rule="evenodd" clip-rule="evenodd" d="M228 391.62C228 458.756 282.436 513.196 349.616 513.196C366.552 513.196 382.64 509.716 397.268 503.472L455.52 530.208L429.916 482.856C455.228 460.6 471.196 427.996 471.196 391.62C471.196 324.44 416.752 270 349.616 270C282.436 270 228 324.44 228 391.62" fill="#FFB201"/><rect id="Rectangle Copy 3" x="286.317" y="351.499" width="132" height="12" rx="6" fill="white"/><rect id="Rectangle Copy 4" x="286.317" y="385.499" width="117" height="12" rx="6" fill="white"/><rect id="Rectangle Copy 5" x="286.317" y="419.499" width="79" height="12" rx="6" fill="white"/></g></g></g><g id="Phone" transform="translate(1218 306) scale(1 1)"><g id="Phone/Screen 1"><g id="Group 19"><path id="Stroke 1" fill-rule="evenodd" clip-rule="evenodd" d="M855.432 1748.86H106.697C47.7696 1748.86 0 1701.09 0 1642.16V106.696C0 47.7691 47.7696 -0.000488281 106.697 -0.000488281H855.432C914.359 -0.000488281 962.129 47.7691 962.129 106.696V1642.16C962.129 1701.09 914.359 1748.86 855.432 1748.86Z" fill="#090E2B"/><path id="Stroke 3" fill-rule="evenodd" clip-rule="evenodd" d="M827.339 72H714.032V101.261C714.032 141.154 681.692 173.496 641.797 173.496H320.329C280.434 173.496 248.091 141.154 248.091 101.258V72H134.79C100.11 72 71.9961 100.111 71.9961 134.791V1614.06C71.9961 1648.74 100.11 1676.86 134.79 1676.86H827.336C862.016 1676.86 890.127 1648.74 890.127 1614.06V134.791C890.127 100.111 862.016 72 827.339 72Z" fill="white"/><path id="Stroke 13 (Stroke)" fill-rule="evenodd" clip-rule="evenodd" d="M193.259 1154.76C191.793 1154.76 190.347 1154.85 188.928 1155.02C187.557 1155.18 186.314 1154.2 186.151 1152.83C185.989 1151.46 186.969 1150.21 188.34 1150.05C189.954 1149.86 191.596 1149.76 193.259 1149.76H198.38C199.761 1149.76 200.88 1150.88 200.88 1152.26C200.88 1153.64 199.761 1154.76 198.38 1154.76H193.259ZM208.171 1152.26C208.171 1150.88 209.29 1149.76 210.671 1149.76H220.913C222.294 1149.76 223.413 1150.88 223.413 1152.26C223.413 1153.64 222.294 1154.76 220.913 1154.76H210.671C209.29 1154.76 208.171 1153.64 208.171 1152.26ZM230.703 1152.26C230.703 1150.88 231.823 1149.76 233.203 1149.76H243.445C244.826 1149.76 245.945 1150.88 245.945 1152.26C245.945 1153.64 244.826 1154.76 243.445 1154.76H233.203C231.823 1154.76 230.703 1153.64 230.703 1152.26ZM253.236 1152.26C253.236 1150.88 254.355 1149.76 255.736 1149.76H265.978C267.358 1149.76 268.478 1150.88 268.478 1152.26C268.478 1153.64 267.358 1154.76 265.978 1154.76H255.736C254.355 1154.76 253.236 1153.64 253.236 1152.26ZM275.768 1152.26C275.768 1150.88 276.887 1149.76 278.268 1149.76H283.389C285.052 1149.76 286.694 1149.86 288.308 1150.05C289.679 1150.21 290.659 1151.46 290.497 1152.83C290.335 1154.2 289.092 1155.18 287.72 1155.02C286.301 1154.85 284.856 1154.76 283.389 1154.76H278.268C276.887 1154.76 275.768 1153.64 275.768 1152.26ZM180.226 1154.41C180.77 1155.68 180.183 1157.15 178.914 1157.69C176.238 1158.84 173.726 1160.3 171.425 1162.03C170.32 1162.85 168.753 1162.63 167.925 1161.53C167.097 1160.42 167.321 1158.85 168.426 1158.03C171.042 1156.06 173.898 1154.4 176.943 1153.1C178.212 1152.56 179.682 1153.14 180.226 1154.41ZM296.422 1154.41C296.966 1153.14 298.436 1152.56 299.705 1153.1C302.75 1154.4 305.607 1156.06 308.223 1158.03C309.328 1158.85 309.552 1160.42 308.723 1161.53C307.895 1162.63 306.328 1162.85 305.223 1162.03C302.922 1160.3 300.41 1158.84 297.735 1157.69C296.466 1157.15 295.878 1155.68 296.422 1154.41ZM163.587 1165.86C164.692 1166.69 164.916 1168.26 164.088 1169.36C162.362 1171.66 160.903 1174.18 159.756 1176.85C159.212 1178.12 157.742 1178.71 156.473 1178.16C155.204 1177.62 154.617 1176.15 155.161 1174.88C156.467 1171.84 158.126 1168.98 160.087 1166.36C160.916 1165.26 162.483 1165.04 163.587 1165.86ZM313.061 1165.86C314.166 1165.04 315.733 1165.26 316.561 1166.36C318.522 1168.98 320.182 1171.84 321.488 1174.88C322.032 1176.15 321.444 1177.62 320.175 1178.16C318.906 1178.71 317.436 1178.12 316.892 1176.85C315.745 1174.18 314.286 1171.66 312.56 1169.36C311.732 1168.26 311.956 1166.69 313.061 1165.86ZM321.759 1184.09C323.13 1183.93 324.373 1184.91 324.535 1186.28C324.726 1187.89 324.824 1189.53 324.824 1191.2V1196.32C324.824 1197.7 323.705 1198.82 322.324 1198.82C320.944 1198.82 319.824 1197.7 319.824 1196.32V1191.2C319.824 1189.73 319.738 1188.29 319.57 1186.87C319.407 1185.5 320.387 1184.25 321.759 1184.09ZM154.89 1184.09C156.261 1184.25 157.241 1185.5 157.079 1186.87C156.911 1188.29 156.824 1189.73 156.824 1191.2V1196.32C156.824 1197.7 155.705 1198.82 154.324 1198.82C152.944 1198.82 151.824 1197.7 151.824 1196.32V1191.2C151.824 1189.53 151.922 1187.89 152.113 1186.28C152.276 1184.91 153.519 1183.93 154.89 1184.09ZM322.324 1206.11C323.705 1206.11 324.824 1207.23 324.824 1208.61V1218.85C324.824 1220.23 323.705 1221.35 322.324 1221.35C320.944 1221.35 319.824 1220.23 319.824 1218.85V1208.61C319.824 1207.23 320.944 1206.11 322.324 1206.11ZM154.324 1206.11C155.705 1206.11 156.824 1207.23 156.824 1208.61V1218.85C156.824 1220.23 155.705 1221.35 154.324 1221.35C152.944 1221.35 151.824 1220.23 151.824 1218.85V1208.61C151.824 1207.23 152.944 1206.11 154.324 1206.11ZM154.324 1228.64C155.705 1228.64 156.824 1229.76 156.824 1231.14V1241.38C156.824 1242.76 155.705 1243.88 154.324 1243.88C152.944 1243.88 151.824 1242.76 151.824 1241.38V1231.14C151.824 1229.76 152.944 1228.64 154.324 1228.64ZM322.324 1228.64C323.705 1228.64 324.824 1229.76 324.824 1231.14V1241.38C324.824 1242.76 323.705 1243.88 322.324 1243.88C320.944 1243.88 319.824 1242.76 319.824 1241.38V1231.14C319.824 1229.76 320.944 1228.64 322.324 1228.64ZM154.324 1251.17C155.705 1251.17 156.824 1252.29 156.824 1253.67V1263.92C156.824 1265.3 155.705 1266.42 154.324 1266.42C152.944 1266.42 151.824 1265.3 151.824 1263.92V1253.67C151.824 1252.29 152.944 1251.17 154.324 1251.17ZM322.324 1251.17C323.705 1251.17 324.824 1252.29 324.824 1253.67V1263.92C324.824 1265.3 323.705 1266.42 322.324 1266.42C320.944 1266.42 319.824 1265.3 319.824 1263.92V1253.67C319.824 1252.29 320.944 1251.17 322.324 1251.17ZM154.324 1273.71C155.705 1273.71 156.824 1274.83 156.824 1276.21V1281.33C156.824 1282.79 156.911 1284.24 157.079 1285.66C157.241 1287.03 156.261 1288.27 154.89 1288.44C153.519 1288.6 152.276 1287.62 152.113 1286.25C151.922 1284.63 151.824 1282.99 151.824 1281.33V1276.21C151.824 1274.83 152.944 1273.71 154.324 1273.71ZM322.324 1273.71C323.705 1273.71 324.824 1274.83 324.824 1276.21V1281.33C324.824 1282.99 324.726 1284.63 324.535 1286.25C324.373 1287.62 323.13 1288.6 321.759 1288.44C320.387 1288.27 319.407 1287.03 319.57 1285.66C319.738 1284.24 319.824 1282.79 319.824 1281.33V1276.21C319.824 1274.83 320.944 1273.71 322.324 1273.71ZM156.473 1294.36C157.742 1293.82 159.212 1294.4 159.756 1295.67C160.903 1298.35 162.362 1300.86 164.088 1303.16C164.916 1304.27 164.692 1305.83 163.587 1306.66C162.483 1307.49 160.916 1307.27 160.087 1306.16C158.126 1303.55 156.467 1300.69 155.161 1297.64C154.617 1296.37 155.204 1294.9 156.473 1294.36ZM320.175 1294.36C321.444 1294.9 322.032 1296.37 321.488 1297.64C320.182 1300.69 318.522 1303.55 316.561 1306.16C315.733 1307.27 314.166 1307.49 313.061 1306.66C311.956 1305.83 311.732 1304.27 312.56 1303.16C314.286 1300.86 315.745 1298.35 316.892 1295.67C317.436 1294.4 318.906 1293.82 320.175 1294.36ZM167.925 1311C168.753 1309.89 170.32 1309.67 171.425 1310.5C173.726 1312.22 176.238 1313.68 178.914 1314.83C180.183 1315.37 180.77 1316.84 180.226 1318.11C179.682 1319.38 178.212 1319.97 176.943 1319.43C173.898 1318.12 171.042 1316.46 168.426 1314.5C167.321 1313.67 167.097 1312.1 167.925 1311ZM308.723 1311C309.552 1312.1 309.328 1313.67 308.223 1314.5C305.607 1316.46 302.75 1318.12 299.705 1319.43C298.436 1319.97 296.966 1319.38 296.422 1318.11C295.878 1316.84 296.466 1315.37 297.735 1314.83C300.41 1313.68 302.922 1312.22 305.223 1310.5C306.328 1309.67 307.895 1309.89 308.723 1311ZM186.151 1319.7C186.314 1318.33 187.557 1317.35 188.928 1317.51C190.347 1317.68 191.793 1317.76 193.259 1317.76H198.38C199.761 1317.76 200.88 1318.88 200.88 1320.26C200.88 1321.64 199.761 1322.76 198.38 1322.76H193.259C191.596 1322.76 189.954 1322.66 188.34 1322.47C186.969 1322.31 185.989 1321.07 186.151 1319.7ZM290.497 1319.7C290.659 1321.07 289.679 1322.31 288.308 1322.47C286.694 1322.66 285.052 1322.76 283.389 1322.76H278.268C276.887 1322.76 275.768 1321.64 275.768 1320.26C275.768 1318.88 276.887 1317.76 278.268 1317.76H283.389C284.856 1317.76 286.301 1317.68 287.72 1317.51C289.092 1317.35 290.335 1318.33 290.497 1319.7ZM208.171 1320.26C208.171 1318.88 209.29 1317.76 210.671 1317.76H220.913C222.294 1317.76 223.413 1318.88 223.413 1320.26C223.413 1321.64 222.294 1322.76 220.913 1322.76H210.671C209.29 1322.76 208.171 1321.64 208.171 1320.26ZM230.703 1320.26C230.703 1318.88 231.823 1317.76 233.203 1317.76H243.445C244.826 1317.76 245.945 1318.88 245.945 1320.26C245.945 1321.64 244.826 1322.76 243.445 1322.76H233.203C231.823 1322.76 230.703 1321.64 230.703 1320.26ZM253.236 1320.26C253.236 1318.88 254.355 1317.76 255.736 1317.76H265.978C267.358 1317.76 268.478 1318.88 268.478 1320.26C268.478 1321.64 267.358 1322.76 265.978 1322.76H255.736C254.355 1322.76 253.236 1321.64 253.236 1320.26Z" fill="#C7D2F2"/></g><path id="Stroke 13 Copy 2" fill-rule="evenodd" clip-rule="evenodd" d="M281.065 1318H190.935C169.431 1318 152 1300.57 152 1279.06V1188.94C152 1167.43 169.431 1150 190.935 1150H281.065C302.569 1150 320 1167.43 320 1188.94V1279.06C320 1300.57 302.569 1318 281.065 1318Z" fill="#A191FF"/><path id="Stroke 5 Copy" fill-rule="evenodd" clip-rule="evenodd" d="M781.741 802.677H191.259C169.576 802.677 152 785.246 152 763.742V444.935C152 423.431 169.576 406 191.259 406H781.741C803.424 406 821 423.431 821 444.935V763.742C821 785.246 803.424 802.677 781.741 802.677Z" fill="#FFB201"/><path id="Stroke 7 Copy" fill-rule="evenodd" clip-rule="evenodd" d="M281.065 1069H190.935C169.431 1069 152 1051.57 152 1030.06V939.935C152 918.431 169.431 901 190.935 901H281.065C302.569 901 320 918.431 320 939.935V1030.06C320 1051.57 302.569 1069 281.065 1069Z" fill="#FF0057"/><rect id="Rectangle" x="378" y="901" width="443" height="18" rx="9" fill="#E7EAFD"/><rect id="Rectangle Copy 3" x="378" y="1162" width="443" height="18" rx="9" fill="#E7EAFD"/><rect id="Rectangle Copy" x="378" y="965" width="332" height="18" rx="9" fill="#E7EAFD"/><rect id="Rectangle Copy 4" x="378" y="1226" width="332" height="18" rx="9" fill="#E7EAFD"/><rect id="Rectangle Copy 2" x="378" y="1029" width="257" height="18" rx="9" fill="#E7EAFD"/><rect id="Rectangle Copy 5" x="378" y="1290" width="257" height="18" rx="9" fill="#E7EAFD"/></g></g><path id="Floor" d="M2776.5 2051C2778.43 2051 2780 2052.57 2780 2054.5C2780 2056.37 2778.54 2057.9 2776.69 2057.99L2776.5 2058H130.5C128.567 2058 127 2056.43 127 2054.5C127 2052.63 128.464 2051.1 130.308 2051.01L130.5 2051H2776.5Z" fill="#090E2B"/><g id="Outdoor Plants" transform="translate(2401 1090) scale(1 1)"><g id="Outdoor Plants/Trees"><g id="Group"><path id="Fill 1" fill-rule="evenodd" clip-rule="evenodd" d="M296.328 734.554C252.725 675.694 316.996 661.47 287.177 606.041C251.046 538.878 302.889 552.365 280.559 484.778C262.89 431.298 232.034 428.995 229.287 352.771C226.543 276.546 89.2583 272.252 118.925 378.777C148.596 485.302 72.2673 459.072 85.6974 536.467C103.649 639.915 31.6143 598.48 54.5598 678.098C74.0793 745.828 -9.15521 859.363 188.705 886C364.798 876.999 339.935 793.418 296.328 734.554Z" fill="#009BA0"/><path id="Stroke 5 (Stroke)" fill-rule="evenodd" clip-rule="evenodd" d="M148.557 612.111C151.011 611.561 153.446 613.104 153.997 615.557L149.554 616.554C153.997 615.557 153.997 615.556 153.996 615.554L153.996 615.552L153.995 615.549C153.995 615.549 153.995 615.55 153.996 615.553L154.006 615.595C154.016 615.639 154.034 615.712 154.06 615.816C154.112 616.023 154.197 616.348 154.319 616.783C154.563 617.654 154.957 618.967 155.539 620.661C156.704 624.05 158.621 628.961 161.602 634.914C167.562 646.817 177.772 662.883 194.72 679.282C196.528 681.031 196.575 683.913 194.826 685.72C193.078 687.528 190.195 687.575 188.388 685.826C170.607 668.621 159.816 651.687 153.459 638.991C150.281 632.644 148.211 627.357 146.927 623.621C146.285 621.753 145.839 620.272 145.55 619.24C145.406 618.725 145.3 618.321 145.229 618.037C145.193 617.895 145.166 617.783 145.146 617.701C145.137 617.661 145.129 617.628 145.123 617.603L145.116 617.571L145.113 617.56L145.112 617.555C145.112 617.553 145.111 617.551 149.554 616.554L145.111 617.551C144.561 615.098 146.104 612.662 148.557 612.111Z" fill="#090E2B"/><path id="Stroke 7 (Stroke)" fill-rule="evenodd" clip-rule="evenodd" d="M115.858 740.329C118.186 739.395 120.829 740.519 121.773 742.84L121.783 742.865C121.797 742.898 121.824 742.961 121.866 743.053C121.949 743.237 122.089 743.538 122.295 743.949C122.707 744.771 123.382 746.031 124.39 747.671C126.406 750.95 129.757 755.753 134.998 761.603C145.476 773.299 163.553 789.231 193.721 805.55C195.933 806.746 196.756 809.509 195.559 811.721C194.363 813.933 191.6 814.756 189.388 813.559C158.363 796.777 139.44 780.209 128.216 767.68C122.606 761.418 118.93 756.177 116.633 752.441C115.485 750.573 114.681 749.083 114.154 748.03C113.89 747.504 113.695 747.088 113.561 746.789C113.494 746.639 113.441 746.519 113.403 746.429C113.384 746.384 113.368 746.347 113.356 746.317L113.34 746.278L113.334 746.263L113.331 746.257C113.33 746.254 113.329 746.251 117.554 744.554L113.329 746.251C112.392 743.917 113.524 741.266 115.858 740.329Z" fill="#090E2B"/><path id="Stroke 9 (Stroke)" fill-rule="evenodd" clip-rule="evenodd" d="M254.261 664.056C256.745 664.446 258.442 666.777 258.052 669.261L253.554 668.554C258.052 669.261 258.051 669.263 258.051 669.265L258.048 669.286L258.041 669.331C258.035 669.366 258.027 669.414 258.016 669.474C257.996 669.594 257.966 669.762 257.926 669.976C257.845 670.405 257.723 671.018 257.55 671.8C257.204 673.365 256.653 675.606 255.823 678.396C254.162 683.974 251.38 691.758 246.866 700.717C237.835 718.645 221.866 741.286 194.129 760.309C192.055 761.731 189.221 761.203 187.799 759.129C186.376 757.055 186.905 754.221 188.978 752.799C215.231 734.794 230.263 713.435 238.734 696.62C242.972 688.207 245.566 680.934 247.094 675.798C247.859 673.231 248.356 671.2 248.658 669.833C248.81 669.149 248.912 668.631 248.976 668.295C249.007 668.126 249.029 668.004 249.042 667.929C249.048 667.891 249.053 667.865 249.055 667.851L249.056 667.847C249.056 667.846 249.056 667.845 249.056 667.844C249.056 667.843 249.056 667.842 249.057 667.841C249.057 667.841 249.056 667.842 249.057 667.841C249.45 665.361 251.779 663.666 254.261 664.056Z" fill="#090E2B"/><path id="Fill 11" fill-rule="evenodd" clip-rule="evenodd" d="M658.603 500.48C620.591 406.998 676.937 341.014 599.628 163.94C522.318 -13.1342 417.027 -13.759 401.056 134.785C385.09 283.329 260.937 377.641 318.195 511.721C374.468 643.494 257.89 674.352 295.711 772.062C343.787 896.263 502.913 901 502.913 901C676.2 901 704.358 843.787 717.883 794.077C753.355 663.7 675.009 540.826 658.603 500.48Z" fill="#FFB201"/><path id="Stroke 15 (Stroke)" fill-rule="evenodd" clip-rule="evenodd" d="M590.434 341.087C592.901 341.573 594.507 343.967 594.021 346.434L589.553 345.554C594.021 346.434 594.02 346.436 594.02 346.438L594.019 346.444L594.016 346.46L594.005 346.511C593.997 346.554 593.984 346.614 593.968 346.691C593.936 346.845 593.889 347.066 593.826 347.353C593.699 347.927 593.507 348.763 593.241 349.844C592.709 352.006 591.88 355.151 590.675 359.143C588.267 367.126 584.359 378.503 578.339 392.199C566.299 419.588 545.799 456.273 511.926 493.613C510.236 495.476 507.357 495.616 505.494 493.927C503.632 492.237 503.491 489.357 505.181 487.495C538.286 451.001 558.286 415.186 570.002 388.534C575.859 375.209 579.643 364.18 581.957 356.512C583.113 352.679 583.902 349.686 584.399 347.668C584.647 346.66 584.822 345.895 584.933 345.39C584.989 345.138 585.029 344.95 585.054 344.83C585.066 344.77 585.075 344.727 585.08 344.701L585.086 344.675L585.086 344.674C585.086 344.673 585.086 344.672 585.086 344.672M590.434 341.087C587.967 340.601 585.574 342.206 585.086 344.672Z" fill="#090E2B"/><path id="Stroke 17 (Stroke)" fill-rule="evenodd" clip-rule="evenodd" d="M615.7 638.148C618.134 638.781 619.593 641.267 618.96 643.701L614.553 642.554C618.96 643.701 618.959 643.703 618.959 643.706L618.957 643.712L618.952 643.73L618.938 643.784C618.926 643.829 618.909 643.892 618.887 643.971C618.844 644.129 618.78 644.355 618.695 644.646C618.525 645.229 618.269 646.074 617.915 647.164C617.207 649.344 616.104 652.505 614.507 656.514C611.312 664.53 606.137 675.936 598.171 689.654C582.237 717.095 555.152 753.766 510.471 791.05C508.54 792.662 505.669 792.402 504.057 790.472C502.446 788.541 502.705 785.669 504.636 784.058C548.435 747.511 574.851 711.681 590.296 685.081C598.021 671.778 603.005 660.777 606.048 653.142C607.569 649.325 608.604 646.35 609.254 644.349C609.579 643.349 609.808 642.593 609.953 642.097C610.025 641.849 610.076 641.666 610.108 641.551C610.124 641.493 610.135 641.452 610.141 641.428L610.147 641.408L610.148 641.405L610.148 641.405C610.782 638.973 613.267 637.515 615.7 638.148Z" fill="#090E2B"/><path id="Stroke 19 (Stroke)" fill-rule="evenodd" clip-rule="evenodd" d="M424.065 495.938C424.065 495.939 424.065 495.94 424.066 495.94L424.066 495.942L424.07 495.973C424.075 496.005 424.082 496.056 424.093 496.127C424.114 496.27 424.148 496.491 424.196 496.788C424.293 497.382 424.447 498.279 424.671 499.452C425.121 501.798 425.852 505.248 426.971 509.593C429.209 518.285 432.995 530.543 439.165 544.7C451.508 573.019 473.354 608.846 511.382 638.985C513.353 640.547 513.684 643.411 512.122 645.382C510.56 647.353 507.696 647.684 505.726 646.122C466.252 614.836 443.598 577.663 430.817 548.338C424.425 533.673 420.491 520.948 418.152 511.864C416.982 507.32 416.21 503.683 415.727 501.164C415.486 499.905 415.317 498.924 415.208 498.249C415.153 497.912 415.113 497.651 415.086 497.469C415.072 497.379 415.062 497.308 415.055 497.257L415.046 497.197L415.044 497.178L415.043 497.172C415.042 497.169 415.042 497.167 419.554 496.554L415.042 497.167C414.703 494.675 416.449 492.381 418.94 492.042C421.431 491.703 423.725 493.447 424.065 495.937L424.065 495.938Z" fill="#090E2B"/><path id="Stroke 3 (Stroke)" fill-rule="evenodd" clip-rule="evenodd" d="M188.553 538C191.068 538 193.107 540.039 193.107 542.553V969.553C193.107 972.068 191.068 974.107 188.553 974.107C186.039 974.107 184 972.068 184 969.553V542.553C184 540.039 186.039 538 188.553 538Z" fill="#090E2B"/><path id="Stroke 13 (Stroke)" fill-rule="evenodd" clip-rule="evenodd" d="M505.553 253C508.068 253 510.107 255.039 510.107 257.553V963.553C510.107 966.068 508.068 968.107 505.553 968.107C503.039 968.107 501 966.068 501 963.553V257.553C501 255.039 503.039 253 505.553 253Z" fill="#090E2B"/></g></g></g><g id="Outdoor Plants" transform="translate(2106 1090) scale(1 1)"><g id="Outdoor Plants/Bush"><g id="Group 16 Copy"><path id="Fill 1" fill-rule="evenodd" clip-rule="evenodd" d="M100.395 964.969C102.956 964.611 105.816 965.245 108.376 964.886H656C655.749 944.057 643.866 913.873 625.677 903.68C607.501 893.499 583.903 893.822 566.014 904.469C574.079 861.735 579.919 817.087 568.156 775.202C556.417 733.318 522.971 694.759 479.773 689.59C439.267 684.757 399.934 710.204 376.612 743.666C353.29 777.128 342.831 817.637 332.815 857.165C333.952 838.466 324.678 819.48 309.254 808.856C293.817 798.232 272.769 796.366 255.705 804.094C236.655 812.72 223.982 831.814 218.107 851.889C212.244 871.976 212.256 893.224 212.315 914.136C200.11 886.476 164.821 871.581 136.497 882.133C108.161 892.697 91.516 936.077 100.395 964.969" fill="#F67A49"/><path id="Fill 4" fill-rule="evenodd" clip-rule="evenodd" d="M216.397 964.975C217.891 964.761 219.553 965.153 221.047 964.927H540C539.857 952.854 532.923 935.356 522.344 929.456C511.753 923.556 498.018 923.735 487.594 929.92C492.292 905.143 495.687 879.247 488.849 854.97C482 830.692 462.515 808.341 437.352 805.344C413.767 802.536 390.864 817.286 377.272 836.687C363.692 856.088 357.608 879.557 351.763 902.478C352.42 891.642 347.029 880.639 338.04 874.489C329.05 868.328 316.786 867.233 306.852 871.718C295.759 876.726 288.371 887.788 284.952 899.421C281.546 911.067 281.546 923.39 281.581 935.499C274.481 919.476 253.92 910.841 237.424 916.966C220.916 923.081 211.221 948.227 216.397 964.975" fill="#FFB201"/></g></g></g><g id="Flying Objects" opacity="0.5" transform="matrix(-1 0 0 1 1255 -177) scale(1 1)"><g id="Flying Objects/Cloud 1"><path id="cloud" fill-rule="evenodd" clip-rule="evenodd" d="M171.044 473.895C161.387 459.137 151.9 436.733 163.002 423.548C169.563 415.755 180.669 416.373 188.629 421.934C196.591 427.495 202.142 436.87 207.441 445.961C198.936 424.955 190.257 403.137 189.653 379.753C189.05 356.369 198.845 330.873 217.134 323.328C236.095 315.504 256.284 328.774 272.648 342.761C307.585 372.621 339.188 408.19 366.334 448.196C364.619 435.639 362.903 422.76 364.903 410.263C366.902 397.765 373.426 385.527 383.427 381.605C393.344 377.714 404.064 382.624 413.373 388.304C445.411 407.843 473.144 437.617 493 473.793C490.055 473.793 494.421 478.67 491.476 478.67L171.044 473.895Z" fill="#F0F1FF"/></g></g></g><g id="Master/Character/Standing [colors]" transform="matrix(-1 0 0 1 1676 562) scale(1 1)"><g id="Master/Character/Standing [colors]"><g id="Lower Body/Standing" transform="translate(-64 629) scale(1 1)"><g id="Lower Body/Standing/Stand One Leg"><g id="leg-2"><path id="leg" fill-rule="evenodd" clip-rule="evenodd" d="M627.417 726C627.417 726 612.976 776.33 611.154 794.549C610.672 799.368 622.647 810.092 622.647 810.092L602.309 834.001L558.951 828.467L554.732 728.444L627.417 726Z" fill="#ff8282"/><g id="shoe-2"><path id="Fill 14" fill-rule="evenodd" clip-rule="evenodd" d="M718.785 854.348C713.364 837.589 674.371 826.625 646.214 818.321C636.736 815.525 623.464 801.615 617.323 801.8C608.382 802.071 617.199 820.802 587.264 819.256C579.34 818.847 578.749 810.442 561.524 808.577C558.726 808.275 554.447 807.74 550.772 814.454C548.724 818.198 540.393 851.961 548.708 865.697C606.656 867.037 666.254 865.373 717.733 864.74C722.76 864.678 720.172 858.636 718.785 854.348" fill="#090E2B"/><path id="Fill 16" fill-rule="evenodd" clip-rule="evenodd" d="M706.806 870.634L566.998 873.504C557.647 873.905 543.645 870.73 542.269 862.962C541.242 857.159 543.452 844.511 543.917 843.669C547.157 837.799 574.926 842.663 583.069 862.428C634.092 866.103 720.958 862.114 720.958 862.114C720.958 862.114 722.286 869.791 706.806 870.634" fill="#FF0057"/><path id="Fill 19" fill-rule="evenodd" clip-rule="evenodd" d="M652.054 830.396C655.749 822.834 657.372 821.516 655.783 820.332C651.984 817.5 632.751 826.338 631.252 831.568C630.129 835.487 642.92 824.116 653.156 822.395C648.97 826.273 645.092 838.134 649.215 835.76C669.299 824.195 672.48 826.855 672.503 826.426C672.616 824.392 664.998 822.769 652.054 830.396" fill="#FF0057"/></g></g><g id="leg-1"><path id="Fill 1" fill-rule="evenodd" clip-rule="evenodd" d="M492.727 607.69C492.727 607.69 530.485 576.799 547.266 557.517C567.861 597.979 575.68 613.043 575.68 613.043C575.68 613.043 542.677 633.417 531.722 642.518C527.311 646.183 534.027 665.341 534.027 665.341C534.027 665.341 507.946 667.92 501.613 653.841C495.28 639.763 492.727 607.69 492.727 607.69" fill="#ff8282"/><g id="shoe-1"><path id="Fill 6" fill-rule="evenodd" clip-rule="evenodd" d="M543.261 769.49C554.685 756.083 543.561 717.135 535.858 688.807C533.265 679.272 538.144 660.675 534.764 655.545C529.844 648.074 518.523 665.408 504.134 639.113C500.326 632.152 507.171 627.239 499.72 611.598C498.511 609.057 496.721 605.135 489.077 605.528C484.816 605.748 451.702 616.369 444.371 630.654C473.631 680.69 506.316 730.554 533.864 774.047C536.554 778.293 540.339 772.92 543.261 769.49" fill="#090E2B"/><path id="Fill 8" fill-rule="evenodd" clip-rule="evenodd" d="M523.113 767.837L447.32 650.322C442.072 642.571 437.43 628.985 443.32 623.738C447.721 619.82 459.648 615.066 460.61 615.02C467.306 614.698 477.734 640.891 465.181 658.191C488.822 703.557 537.791 775.416 537.791 775.416C537.791 775.416 531.952 780.573 523.113 767.837" fill="#FF0057"/><path id="Fill 10" fill-rule="evenodd" clip-rule="evenodd" d="M528.643 700.114C537.019 699.293 538.993 699.983 539.167 698.009C539.584 693.289 521.97 681.552 516.732 683.021C512.806 684.121 529.197 689.043 536.032 696.855C530.534 695.325 518.402 698.248 522.586 700.512C542.969 711.543 542.374 715.645 542.751 715.441C544.542 714.47 541.928 707.133 528.643 700.114" fill="#FF0057"/></g></g><path id="Combined Shape" fill-rule="evenodd" clip-rule="evenodd" d="M495.655 211.188C465.6 69.7987 507.268 -6.14495e-05 507.268 -6.14495e-05L654.774 -6.20007e-05C654.774 -6.20007e-05 654.776 0.0179122 654.782 0.0534769C668.783 -6.2226e-05 678.698 -6.25595e-05 678.698 -6.25595e-05C678.698 -6.25595e-05 686.392 8.35567 690.93 17.5354C742.09 121.011 782.215 220.849 814.613 307.412C815.563 309.951 816.669 312.728 817.86 315.718C829.931 346.032 850.677 398.132 805.548 443.69C780.787 468.685 706.377 527.964 649.586 572.323C642.823 664.007 636.318 732.915 633.329 735.284C625.738 741.301 547.582 773.529 543.972 747.842C531.854 675.043 531.323 598.764 530.855 531.718C530.653 502.733 530.463 475.474 529.354 450.967C525.94 375.504 520.282 327.038 495.655 211.188ZM660.116 413.087C678.269 394.688 696.374 377.877 712.363 365.781C702.011 352.92 685.017 329.409 666.043 302.416C664.368 337.832 662.34 375.424 660.116 413.087Z" fill="#FFB201"/><path id="Fill 23" fill-rule="evenodd" clip-rule="evenodd" d="M669.207 102.724C670.795 135.872 671.048 169.447 671.027 202.621C670.067 233.772 671.499 271.137 666.382 301.696C666.058 303.629 665.856 301.548 665.804 300.938C663.329 272.387 667.037 231.289 666.852 202.573C667.349 178.531 667.666 151.887 668.003 127.704L668.67 100.613C668.663 100.142 669.196 102.2 669.207 102.724" fill="black"/><path id="Fill 25" fill-rule="evenodd" clip-rule="evenodd" d="M660.29 413.077C661.829 464.91 657.656 521.374 649.599 572.144C649.451 573.08 649.604 570.368 649.616 569.632C649.961 546.692 653.2 514.572 654.04 492.171C655.41 468.887 657.03 437.04 659.756 414.151C659.797 413.601 660.274 412.487 660.29 413.077" fill="black"/></g></g><g id="Upper Body/Standing" transform="translate(69 -172) scale(1 1)"><g id="Upper Body/Standing/Cross Hand 1"><path id="neck" fill-rule="evenodd" clip-rule="evenodd" d="M437.594 459.099C430.46 466.5 399.671 470.026 410.156 482.007C424.434 498.325 466.955 526.999 478.746 527C524.385 527.002 517.65 473.419 517.65 473.419C517.65 473.419 501.971 468.051 499.41 463.929C496.129 458.648 496.141 441.734 496.797 427.55C497.454 413.367 440.697 406 440.697 406C440.697 406 440.593 455.989 437.594 459.099Z" fill="#ff8282"/><g id="tshirt"><path id="Fill 4" fill-rule="evenodd" clip-rule="evenodd" d="M513.648 470.696C513.648 470.696 511.484 486.743 500.078 502.636C492.09 513.766 479.525 514.542 460.176 502.636C445.221 493.434 423.363 474.347 419.533 466.288C409.725 470.278 338.469 487.881 338.469 523.749C338.469 559.616 350.434 611.677 350.434 629.772C350.434 647.868 353.954 737.767 345.596 774.166C335.703 817.248 335.703 824.161 375.23 819.941C414.757 815.721 536.947 797.017 559.994 808.762C569.211 813.459 571.224 800.454 566.28 779.996C561.398 759.795 563.627 737.375 561.588 705.264C593.334 697.57 599.698 683.314 601.734 669.446C610.329 610.886 585.9 564.594 568.26 514.542C559.019 488.321 513.648 470.696 513.648 470.696Z" fill="#FF0057"/><path id="Fill 6" fill-rule="evenodd" clip-rule="evenodd" d="M553.676 607.372C553.813 608.233 553.224 609.042 552.36 609.174C551.485 609.311 550.666 608.691 550.558 607.814L548.886 594.425C547.901 580.382 548.479 565.28 548.838 551.751C548.839 550.936 549.993 553.096 549.998 553.937C550.019 571.663 550.838 589.88 553.676 607.372Z" fill="#090E2B"/><path id="hand-2" fill-rule="evenodd" clip-rule="evenodd" d="M502 621.145C502 621.145 525.775 602.575 532.17 602.566C545.006 602.547 555.041 607.001 555.041 607.001C555.041 607.001 567.843 631.061 565.373 638.231C563.481 643.723 533.688 639.253 519.283 647.201C503.334 656.001 502 621.145 502 621.145Z" fill="#ff8282"/><path id="Fill 10" fill-rule="evenodd" clip-rule="evenodd" d="M396.608 631.36C396.608 631.36 466.169 616.785 490.02 614.474C503.881 613.132 516.384 645.501 517.487 653.584C518.587 661.666 451.032 707.375 396.608 718.034C335.447 730.015 323.185 721.825 308.451 665.845C299.374 631.36 328.019 541.168 340.098 514.93C350.432 492.481 409.013 544.319 409.013 544.319L396.608 631.36Z" fill="#FF0057"/><path id="Fill 12" fill-rule="evenodd" clip-rule="evenodd" d="M404.6 546.267C407.671 568.661 404.666 591.378 400.74 613.489C400.38 615.483 397.226 614.9 397.648 612.887C401.248 596.556 403.824 579.851 404.331 563.108C404.434 557.533 404.292 551.947 403.615 546.413C403.516 545.799 404.512 545.618 404.6 546.267" fill="#090E2B"/><path id="hand-1" fill-rule="evenodd" clip-rule="evenodd" d="M368.656 614.723C377.311 607.474 381.107 606.024 382.612 606.501C383.999 606.941 381.75 603.215 385.141 603.215C396.885 603.215 405.551 609.348 408.013 611.272C415.357 617.008 419.113 623.046 422.563 626.176C413.786 628.209 384.881 632.965 384.881 632.965C384.881 632.965 374.708 634.892 371.796 631.463C368.873 628.02 368.656 614.723 368.656 614.723Z" fill="#ff8282"/><path id="Fill 16" fill-rule="evenodd" clip-rule="evenodd" d="M417.954 626.731C441.798 621.273 465.721 616.005 489.965 612.642C503.195 611.773 517.355 641.839 519.421 653.315C519.45 653.484 519.502 654.021 519.404 654.31C516.873 661.828 501.805 671.502 495.5 676.201C462.957 697.222 427.044 715.14 388.401 720.946C375.578 722.409 357.656 723.597 349.622 722.502C349.539 722.491 349.672 722.405 349.925 722.368C355.913 721.504 362.69 721.248 368.857 720.551C400.896 716.931 431.755 707.506 460.115 692.409C471.501 686.481 482.579 679.944 493.235 672.838C500.731 667.395 509.769 662.05 514.982 654.605C515.314 654.132 515.414 653.529 515.272 652.969C512.483 642.076 506.986 631.583 500.118 622.729C495.187 616.901 492.409 615.35 484.985 616.943C463.148 620.181 439.912 624.315 418.116 627.569C417.628 627.661 417.407 626.841 417.954 626.731" fill="#090E2B"/><path id="Fill 18" fill-rule="evenodd" clip-rule="evenodd" d="M560.318 705.968C532.601 710.345 494.954 701.004 472.747 690.892C470.619 689.851 472.294 686.503 474.412 687.628C493.196 695.966 513.289 701.733 534.054 704.437C540.889 705.566 553.935 705.288 561.498 705.288C561.926 705.296 561.376 705.801 560.318 705.968Z" fill="#090E2B"/></g></g></g><g id="Head" transform="translate(399 26) scale(1 1)"><g id="Head/Curls Dark"><path id="Fill 1" fill-rule="evenodd" clip-rule="evenodd" d="M209.13 107.576C209.13 107.576 211.111 98.2315 225.677 99.2915C249.228 101.004 253.478 123.99 248.075 146.511C244.27 162.375 239.184 174.874 240.786 183.662C243.858 200.497 252.55 201.287 259.26 219.753C269.914 249.073 243.101 251.211 242.842 256.473C241.589 281.97 233.236 293.7 218.556 299.278C196.912 307.503 174.192 296.726 162.706 276.671C153.09 259.879 162.706 241.459 162.706 241.459L215.403 190.681L209.13 107.576Z" fill="#090E2B"/><path id="Fill 4" fill-rule="evenodd" clip-rule="evenodd" d="M205.767 97.1399C205.767 97.1399 221.196 104.729 228.478 125.988C232.573 137.942 231.011 152.622 233.289 173.308C238.947 224.664 223.805 264.735 195.664 263.775C162.246 262.634 133.329 242.675 117.287 231.071C101.244 219.465 98.3012 204.971 98.1382 182.023C97.9762 159.075 98.8112 109.753 113.625 108.302C128.44 106.852 175.746 74.3719 205.767 97.1399" fill="#ff8282"/><path id="Fill 6" fill-rule="evenodd" clip-rule="evenodd" d="M107.061 192.611C107.085 200.502 138.572 221.412 121.831 250.892C133.198 262.711 129.991 309.253 81.1124 302.641C59.6644 331.329 14.1904 319.58 19.4464 288.852C6.01236 286.241 -0.562643 264.295 1.31436 251.892C6.17836 219.753 36.7984 215.753 36.7984 215.753C32.9554 178.829 66.6264 187.586 61.9484 162.168C57.3234 137.036 62.3714 102.183 88.8184 98.0927C92.4274 61.9707 139.068 45.6877 171.823 62.8627C179.557 55.7807 232.352 47.4767 231.247 95.8587C230.872 112.288 218.117 134.291 199.535 138.047C186.424 140.699 163.173 136.077 155.2 145.862C144.293 159.247 142.437 162.533 125.877 170.982C119.458 174.256 114.916 170.982 114.916 170.982C114.916 170.982 107.001 173.251 107.061 192.611Z" fill="#090E2B"/><path id="Fill 9" fill-rule="evenodd" clip-rule="evenodd" d="M114.678 200.632C107.568 204.795 97.8472 199.587 92.2142 195.791C80.0062 187.565 80.4822 174.231 90.2832 167.039C97.4452 161.785 107.435 162.844 116.501 170.503C124.314 177.104 122.709 195.929 114.678 200.632" fill="#ff8282"/><path id="Fill 11" fill-rule="evenodd" clip-rule="evenodd" d="M96.0162 174.113C101.095 173.183 106.796 173.852 110.409 179.189C112.059 181.628 112.088 184.407 112.941 187.201C113.034 187.506 112.054 188.229 110.665 184.869C108.859 180.502 105.591 177.749 102.748 176.553C99.0452 174.997 94.5922 176.048 93.9242 175.4C93.2282 174.725 95.4482 174.217 96.0162 174.113" fill="black"/><path id="Fill 13" fill-rule="evenodd" clip-rule="evenodd" d="M109.899 183.543C107.33 182.219 102.433 184.586 102.233 184.079C101.612 182.51 108.213 179.771 110.38 181.536C111.971 182.832 111.725 184.484 109.899 183.543" fill="black"/><path id="Fill 15" fill-rule="evenodd" clip-rule="evenodd" d="M133.434 241.697C134.317 242.081 139.01 244.788 141.079 245.889C144.872 247.91 148.686 249.905 152.55 251.727C154.541 252.671 159.332 254.343 158.687 254.904C157.447 255.98 146.676 251.956 139.861 247.463C136.238 245.075 131.925 241.043 133.434 241.697" fill="#090E2B"/></g></g><g id="Expressions" transform="translate(520 159) scale(1 1)"><g id="Expressions/Happy"><g id="eye1"><path id="Fill 1" fill-rule="evenodd" clip-rule="evenodd" d="M21.0758 18.1794C22.852 10.1964 46.2248 7.39831 56.5098 13.5793C60.0658 15.6923 66.6698 21.4974 60.8228 24.6574C59.2788 25.3294 57.7788 24.6404 56.5098 23.8214C42.4918 14.0794 19.8377 23.7441 21.0758 18.1794Z" fill="#090E2B"/><path id="Fill 6" fill-rule="evenodd" clip-rule="evenodd" d="M40.0385 32.611C34.7505 34.111 30.2175 38.361 29.7965 41.883C29.5415 44.011 37.8915 49.12 45.9445 49.517C56.5385 50.038 61.8785 44.299 61.8595 42.465C61.1465 36.915 54.7555 28.437 40.0385 32.611Z" fill="white"/><path id="Fill 8" fill-rule="evenodd" clip-rule="evenodd" d="M56.4251 35.7687C48.2821 29.6147 35.6701 33.6247 29.7961 41.8827C29.4591 42.3107 29.5561 41.2337 29.7901 40.7427C32.6241 34.7957 37.7371 31.9887 43.6651 30.7647C47.2321 30.0277 50.5581 29.9677 54.0371 31.5257C55.3821 32.1267 57.7581 33.9587 59.5941 36.0307C61.0261 37.6457 62.2321 40.4147 60.5751 39.4357C59.2781 38.6687 57.5051 36.5857 56.4251 35.7687Z" fill="#090E2B"/><path id="Fill 10" fill-rule="evenodd" clip-rule="evenodd" d="M45.8406 46.276C50.3676 46.276 54.0376 42.928 54.0376 38.797C54.0376 34.667 50.3676 31.318 45.8406 31.318C41.3136 31.318 37.6436 34.667 37.6436 38.797C37.6436 42.928 41.3136 46.276 45.8406 46.276Z" fill="#090E2B"/></g><g id="eye2"><path id="Fill 4" fill-rule="evenodd" clip-rule="evenodd" d="M104.459 16.8615C107.813 18.3492 112.278 23.2874 108.561 23.2874C104.844 23.2874 96.7934 22.233 91.3964 24.46C89.5114 24.942 88.0809 25.8644 86.1879 26.0894C81.8799 26.9284 79.5393 21.7686 82.5852 18.6493C86.0263 15.1253 97.6432 13.4545 104.459 16.8615Z" fill="#090E2B"/><path id="Fill 12" fill-rule="evenodd" clip-rule="evenodd" d="M100.659 49.2345C106.03 47.9855 110.047 43.1155 109.593 39.4765C108.707 34.6545 99.4218 31.5755 94.2208 34.2085C89.0698 36.8155 85.8468 42.6405 86.2628 44.9405C86.8638 46.5325 95.1698 50.5115 100.659 49.2345Z" fill="white"/><path id="Fill 14" fill-rule="evenodd" clip-rule="evenodd" d="M96.2146 46.6063C99.7526 46.6063 102.621 43.8523 102.621 40.4563C102.621 37.0593 100.6 33.8493 96.2146 34.3063C92.6956 34.6723 89.8076 37.0593 89.8076 40.4563C89.8076 43.8523 92.6766 46.6063 96.2146 46.6063Z" fill="#090E2B"/><path id="Fill 22" fill-rule="evenodd" clip-rule="evenodd" d="M86.454 41.6378C88.483 34.0638 97.644 30.1689 104.889 33.7549C105.909 34.2869 107.565 35.4809 108.805 36.9229C109.946 38.2529 109.797 38.9499 109.331 38.8119C108.559 38.5819 106.926 37.1169 105.599 36.4869C98.889 33.3039 91.908 35.0899 86.797 42.5589C86.546 42.9459 86.308 42.0748 86.454 41.6378" fill="#090E2B"/></g><path id="Fill 18" fill-rule="evenodd" clip-rule="evenodd" d="M89.7737 88.8586C81.2033 89.8586 88.1482 99.3834 83.7083 100.649C72.341 103.888 59.9999 99.9573 58.0066 89.8586C56.8302 83.8987 60.3418 84.6194 63.1467 84.8682C65.9516 85.1171 79.8038 85.6293 87.2446 85.6293C94.4592 85.6293 90.8333 88.735 89.7737 88.8586Z" fill="#090E2B"/><path id="nose" fill-rule="evenodd" clip-rule="evenodd" d="M79.5164 56.0474C79.9047 56.0474 82.4879 60.4695 83.4357 62.0222C86.4544 66.9676 89.7813 72.5049 84.8702 75.6882C82.4912 77.2312 75.0122 74.8407 75.0122 73.0252C75.0122 70.2631 81.8382 75.1192 83.4442 72.3152C84.3858 70.8872 80.8591 63.644 79.5164 59.3488C78.7671 56.9517 79.1281 56.0474 79.5164 56.0474Z" fill="#090E2B"/></g></g><g id="Facial Accesories" transform="translate(517 209) scale(120 110)"><g id="Facial Accesories/None" stroke="none" stroke-width="1" fill="none" fill-rule="evenodd" fill-opacity="0"/></g><g id="Glass" transform="translate(520 164) scale(120 75)"><g id="Glass/None" stroke="none" stroke-width="1" fill="none" fill-rule="evenodd" fill-opacity="0"/></g></g></g></g></svg>